HIERARCHY
ROOT hips
{
  OFFSET 0 10.6860622 2.3727825e-15
  CHANNELS 6 Xposition Yposition Zposition Yrotation Xrotation Zrotation
  JOINT leftUpperLeg
  {
    OFFSET 0.6642549969 -0.9402397400000004 0
    CHANNELS 3 Yrotation Xrotation Zrotation
    JOINT leftLowerLeg
    {
      OFFSET 0 -3.997221335632195 0
      CHANNELS 3 Yrotation Xrotation Zrotation
      JOINT leftFoot
      {
        OFFSET -0.13777839790000004 -4.6145792000000005 -0.22186036399999998
        CHANNELS 3 Yrotation Xrotation Zrotation
        JOINT leftToes
        {
          OFFSET -0.03777410834999995 -0.9130806927000008 0.85230013
          CHANNELS 3 Yrotation Xrotation Zrotation
          End Site
          {
            OFFSET -0.03777410834999995 -0.9130806927000008 0.85230013
          }
        }
      }
    }
  }
  JOINT rightUpperLeg
  {
    OFFSET -0.6642778626 -0.9402397400000004 0
    CHANNELS 3 Yrotation Xrotation Zrotation
    JOINT rightLowerLeg
    {
      OFFSET 0 -3.997221452859387 0
      CHANNELS 3 Yrotation Xrotation Zrotation
      JOINT rightFoot
      {
        OFFSET 0.1377926176 -4.6145792000000005 -0.22185782299999995
        CHANNELS 3 Yrotation Xrotation Zrotation
        JOINT rightToes
        {
          OFFSET 0.037780746850000047 -0.9130806927000008 0.85230167
          CHANNELS 3 Yrotation Xrotation Zrotation
          End Site
          {
            OFFSET 0.037780746850000047 -0.9130806927000008 0.85230167
          }
        }
      }
    }
  }
  JOINT spine
  {
    OFFSET 0 0.13988381660000015 0
    CHANNELS 3 Yrotation Xrotation Zrotation
    JOINT chest
    {
      OFFSET 0 0.6191039003973773 0
      CHANNELS 3 Yrotation Xrotation Zrotation
      JOINT upperChest
      {
        OFFSET 0 0.9855186130586943 0
        CHANNELS 3 Yrotation Xrotation Zrotation
        JOINT leftShoulder
        {
          OFFSET 0.1807663869 1.5087829790000005 0
          CHANNELS 3 Yrotation Xrotation Zrotation
          JOINT leftUpperArm
          {
            OFFSET 0.5985063006419806 0 0
            CHANNELS 3 Yrotation Xrotation Zrotation
            JOINT leftLowerArm
            {
              OFFSET 2.2993332369501065 0 0
              CHANNELS 3 Yrotation Xrotation Zrotation
              JOINT leftHand
              {
                OFFSET 2.395047042602395 0 0
                CHANNELS 3 Yrotation Xrotation Zrotation
                JOINT leftIndexProximal
                {
                  OFFSET 0.5766295810000004 0.04556643899499946 0.17265095988184
                  CHANNELS 3 Yrotation Xrotation Zrotation
                  JOINT leftIndexIntermediate
                  {
                    OFFSET 0.2957229000000008 -0.019352197700001517 -0.007932640616999987
                    CHANNELS 3 Yrotation Xrotation Zrotation
                    JOINT leftIndexDistal
                    {
                      OFFSET 0.19008243099999922 -0.012484908149998475 -0.002786250786000012
                      CHANNELS 3 Yrotation Xrotation Zrotation
                      End Site
                      {
                        OFFSET 0.19008243099999922 -0.012484908149998475 -0.002786250786000012
                      }
                    }
                  }
                }
                JOINT leftMiddleProximal
                {
                  OFFSET 0.5834975091000001 0.0524350405149987 0.02204081888183999
                  CHANNELS 3 Yrotation Xrotation Zrotation
                  JOINT leftMiddleIntermediate
                  {
                    OFFSET 0.33880573540000003 -0.019871473270000717 -0.00000971183179999946
                    CHANNELS 3 Yrotation Xrotation Zrotation
                    JOINT leftMiddleDistal
                    {
                      OFFSET 0.20676022730000088 -0.012221336379999448 0.0001471936708000235
                      CHANNELS 3 Yrotation Xrotation Zrotation
                      End Site
                      {
                        OFFSET 0.20676022730000088 -0.012221336379999448 0.0001471936708000235
                      }
                    }
                  }
                }
                JOINT leftLittleProximal
                {
                  OFFSET 0.5344154683999995 -0.012880921405001189 -0.24414037221816004
                  CHANNELS 3 Yrotation Xrotation Zrotation
                  JOINT leftLittleIntermediate
                  {
                    OFFSET 0.21758961730000093 -0.011650919939999227 0.011893592810000034
                    CHANNELS 3 Yrotation Xrotation Zrotation
                    JOINT leftLittleDistal
                    {
                      OFFSET 0.1475273964999999 -0.008152365682999818 0.006001092492999946
                      CHANNELS 3 Yrotation Xrotation Zrotation
                      End Site
                      {
                        OFFSET 0.1475273964999999 -0.008152365682999818 0.006001092492999946
                      }
                    }
                  }
                }
                JOINT leftRingProximal
                {
                  OFFSET 0.5799399463000003 0.026911854694997794 -0.12150566991816003
                  CHANNELS 3 Yrotation Xrotation Zrotation
                  JOINT leftRingIntermediate
                  {
                    OFFSET 0.26167887460000006 -0.013480186499999602 0.010996293000000053
                    CHANNELS 3 Yrotation Xrotation Zrotation
                    JOINT leftRingDistal
                    {
                      OFFSET 0.17667108799999987 -0.008990287899999228 0.0055541023999999065
                      CHANNELS 3 Yrotation Xrotation Zrotation
                      End Site
                      {
                        OFFSET 0.17667108799999987 -0.008990287899999228 0.0055541023999999065
                      }
                    }
                  }
                }
                JOINT leftThumbProximal
                {
                  OFFSET 0.11018806699999972 -0.09448718900500053 0.17047963138184
                  CHANNELS 3 Yrotation Xrotation Zrotation
                  JOINT leftThumbIntermediate
                  {
                    OFFSET 0.31062601459999983 -0.08126270900000132 0.15443142000000007
                    CHANNELS 3 Yrotation Xrotation Zrotation
                    JOINT leftThumbDistal
                    {
                      OFFSET 0.21627175790000086 -0.08833193599999878 0.018771167799999988
                      CHANNELS 3 Yrotation Xrotation Zrotation
                      End Site
                      {
                        OFFSET 0.21627175790000086 -0.08833193599999878 0.018771167799999988
                      }
                    }
                  }
                }
              }
            }
          }
        }
        JOINT neck
        {
          OFFSET 0 1.5463305265074576 0
          CHANNELS 3 Yrotation Xrotation Zrotation
          JOINT head
          {
            OFFSET 0 0.8456443600000344 0
            CHANNELS 3 Yrotation Xrotation Zrotation
            JOINT leftEye
            {
              OFFSET 0.30408573140000006 0.5104519199999995 0.1276382305
              CHANNELS 3 Yrotation Xrotation Zrotation
              End Site
              {
                OFFSET 0.30408573140000006 0.5104519199999995 0.1276382305
              }
            }
            JOINT rightEye
            {
              OFFSET -0.30409491089999996 0.5104519199999995 0.1276379445
              CHANNELS 3 Yrotation Xrotation Zrotation
              End Site
              {
                OFFSET -0.30409491089999996 0.5104519199999995 0.1276379445
              }
            }
            JOINT jaw
            {
              OFFSET -3.155239131000001e-7 -0.11984121820000082 0.60178107
              CHANNELS 3 Yrotation Xrotation Zrotation
              End Site
              {
                OFFSET -3.155239131000001e-7 -0.11984121820000082 0.60178107
              }
            }
          }
        }
        JOINT rightShoulder
        {
          OFFSET -0.1807303465 1.5087829790000005 0
          CHANNELS 3 Yrotation Xrotation Zrotation
          JOINT rightUpperArm
          {
            OFFSET -0.5985063796536958 0 0
            CHANNELS 3 Yrotation Xrotation Zrotation
            JOINT rightLowerArm
            {
              OFFSET -2.2993322059002854 0 0
              CHANNELS 3 Yrotation Xrotation Zrotation
              JOINT rightHand
              {
                OFFSET -2.395045314457259 0 0
                CHANNELS 3 Yrotation Xrotation Zrotation
                JOINT rightIndexProximal
                {
                  OFFSET -0.5764487688300002 0.0441371204405987 0.17361932004999997
                  CHANNELS 3 Yrotation Xrotation Zrotation
                  JOINT rightIndexIntermediate
                  {
                    OFFSET -0.29573011380000047 -0.01934826376999843 -0.007698921482999974
                    CHANNELS 3 Yrotation Xrotation Zrotation
                    JOINT rightIndexDistal
                    {
                      OFFSET -0.19008373999999884 -0.012503266380000655 -0.0026365778999999897
                      CHANNELS 3 Yrotation Xrotation Zrotation
                      End Site
                      {
                        OFFSET -0.19008373999999884 -0.012503266380000655 -0.0026365778999999897
                      }
                    }
                  }
                }
                JOINT rightMiddleProximal
                {
                  OFFSET -0.5834852037300005 0.05211639405060153 0.02307162440000001
                  CHANNELS 3 Yrotation Xrotation Zrotation
                  JOINT rightMiddleIntermediate
                  {
                    OFFSET -0.33880114510000003 -0.019952774050000954 0.0002455003561999819
                    CHANNELS 3 Yrotation Xrotation Zrotation
                    JOINT rightMiddleDistal
                    {
                      OFFSET -0.20675694929999955 -0.012273788999999091 0.00030209124000002766
                      CHANNELS 3 Yrotation Xrotation Zrotation
                      End Site
                      {
                        OFFSET -0.20675694929999955 -0.012273788999999091 0.00030209124000002766
                      }
                    }
                  }
                }
                JOINT rightLittleProximal
                {
                  OFFSET -0.5346811737299992 -0.011214256288399227 -0.24363941305000003
                  CHANNELS 3 Yrotation Xrotation Zrotation
                  JOINT rightLittleIntermediate
                  {
                    OFFSET -0.21757715980000092 -0.011771559690000988 0.01201554387
                    CHANNELS 3 Yrotation Xrotation Zrotation
                    JOINT rightLittleDistal
                    {
                      OFFSET -0.1475201849000004 -0.00822055339600003 0.006082065407000015
                      CHANNELS 3 Yrotation Xrotation Zrotation
                      End Site
                      {
                        OFFSET -0.1475201849000004 -0.00822055339600003 0.006082065407000015
                      }
                    }
                  }
                }
                JOINT rightRingProximal
                {
                  OFFSET -0.5800810755299999 0.027657985680600072 -0.12066365025000003
                  CHANNELS 3 Yrotation Xrotation Zrotation
                  JOINT rightRingIntermediate
                  {
                    OFFSET -0.26166445029999974 -0.013623118409999302 0.011164098990000045
                    CHANNELS 3 Yrotation Xrotation Zrotation
                    JOINT rightRingDistal
                    {
                      OFFSET -0.17666387530000027 -0.009072900100000503 0.005668185599999959
                      CHANNELS 3 Yrotation Xrotation Zrotation
                      End Site
                      {
                        OFFSET -0.17666387530000027 -0.009072900100000503 0.005668185599999959
                      }
                    }
                  }
                }
                JOINT rightThumbProximal
                {
                  OFFSET -0.10997596379000074 -0.09577489355940072 0.16989765924999997
                  CHANNELS 3 Yrotation Xrotation Zrotation
                  JOINT rightThumbIntermediate
                  {
                    OFFSET -0.31036620999999986 -0.08229339117999834 0.15440884469999996
                    CHANNELS 3 Yrotation Xrotation Zrotation
                    JOINT rightThumbDistal
                    {
                      OFFSET -0.21631306399999906 -0.08825326400000111 0.018656797720000014
                      CHANNELS 3 Yrotation Xrotation Zrotation
                      End Site
                      {
                        OFFSET -0.21631306399999906 -0.08825326400000111 0.018656797720000014
                      }
                    }
                  }
                }
              }
            }
          }
        }
      }
    }
  }
}
MOTION
Frames: 6
Frame Time: 0.03333333333333333
0.9585436727261191 -4.752430536569382 0.0024184827567390577 0 12.993354125611017 0 15.017640598814465 -13.286735943121885 -1.3275894111619302 40.19817530523805 81.90783852653873 41.6282382685275 26.024982725946064 56.96112969266628 6.890676967980811 0 0 0 -11.659472903121642 -16.419331020963902 -12.137214378948443 -40.834961614052894 81.98491592353577 -42.30417674473528 -10.60498365317592 62.00489979072548 -3.477315080814815 0 0 0 -2.0930037420515135 19.652625981936932 16.668959343246787 -1.4001575517402336 -4.905946797181054 -3.9037582854333968 0 0 0 -47.91971109420656 -46.73828793566407 20.075939281976854 -1.868314149935322 -7.617580218558373 -31.131277115505934 -24.67088978744116 5.864880040165673 -26.10995040608404 38.874463645057304 -12.478700946928983 -10.876958978629391 0 0 0 0 0 0 0 0 0 0 0 0 0 0 0 0 0 0 0 0 0 0 0 0 0 0 0 0 0 0 0 0 0 0 0 0 0 0 0 0 0 0 0 0 0 -0.0817622573159763 -30.52006251986552 -8.347608254752293 -1.3980052830292904 -18.110906307323337 0.39241083388146053 0 0 0 0 0 0 0 0 0 -10.894159851531343 -7.917483084883256 -8.657152048479237 -34.826565480531364 -31.665204194019562 77.8990022622393 83.86337653012127 0.43062957888400444 52.84378247282852 -19.088838281718857 4.672082854174605 -16.832244660502568 0 0 0 0 0 0 0 0 0 0 0 0 0 0 0 0 0 0 0 0 0 0 0 0 0 0 0 0 0 0 0 0 0 0 0 0 0 0 0 0 0 0 0 0 0
0.9585436727261191 -4.752430536569382 0.06449439440257894 0 11.198579018848337 0 14.678407755051394 -10.763668186281285 -0.8840721202690324 36.1617457871483 81.17031522042849 37.533793533206385 25.933877435274574 57.21918603134375 6.67457759870936 0 0 0 -12.073076717275471 -14.016058413072402 -12.925491635015083 -36.876084193676114 81.29883838058234 -38.34376506587146 -10.694688951134024 62.02313039360684 -4.1315235854277255 0 0 0 -2.0875862943452015 19.253179065581907 16.684505783415357 -1.3951790362674068 0.1641451449394945 -4.027709836443022 0 0 0 -50.543691843494095 -48.61311630273074 23.93350474463915 -1.9526827474027872 -7.753380466966502 -31.526847516126608 -25.434388829726053 5.437965812775323 -27.00577064097514 39.32515870400195 -12.982393882286999 -10.531869419564677 0 0 0 0 0 0 0 0 0 0 0 0 0 0 0 0 0 0 0 0 0 0 0 0 0 0 0 0 0 0 0 0 0 0 0 0 0 0 0 0 0 0 0 0 0 -0.07835793069070252 -30.56351358118914 -8.377177206823218 -1.3846840808166987 -18.42489827477695 0.39646794690682996 0 0 0 0 0 0 0 0 0 -12.318141238699434 -9.568001197658338 -9.873603232522115 -34.86473651015075 -31.198582531090697 78.17262063824857 84.27468792136203 -0.1348714678255811 53.22065455848382 -18.40596637654638 2.9843321107304197 -17.947683605868306 0 0 0 0 0 0 0 0 0 0 0 0 0 0 0 0 0 0 0 0 0 0 0 0 0 0 0 0 0 0 0 0 0 0 0 0 0 0 0 0 0 0 0 0 0
0.9585436727261191 -4.752430536569382 0.09553235022549886 0 10.299418136885707 0 14.516592036461953 -9.496040270402359 -0.6684585195283966 34.39066772012544 80.78673751661346 35.733674586185856 25.887393608363396 57.348136650468064 6.56565797361004 0 0 0 -12.291937629674532 -12.811552901741004 -13.324968652371076 -35.12448702305757 80.94186229523827 -36.591398732175065 -10.739738861464216 62.03207138157363 -4.458866119621169 0 0 0 -2.0849249832020957 19.053436340633343 16.692247468911834 -1.3968528923806973 2.741297567955629 -4.090622761843142 0 0 0 -51.96813478423548 -49.50656755636021 25.97105543477872 -1.9945273540186597 -7.821504671624809 -31.724621796089494 -25.813722401418087 5.219884577382374 -27.451665159150856 39.5497649345155 -13.23532804331894 -10.360520559058335 0 0 0 0 0 0 0 0 0 0 0 0 0 0 0 0 0 0 0 0 0 0 0 0 0 0 0 0 0 0 0 0 0 0 0 0 0 0 0 0 0 0 0 0 0 -0.07664531314672396 -30.585242442141993 -8.391969886610443 -1.3780240300373992 -18.581864734066933 0.3984699057245529 0 0 0 0 0 0 0 0 0 -13.021926195896313 -10.407323023546754 -10.470546444517556 -34.88277466817282 -30.965180659275248 78.30880607743539 84.47902237164836 -0.41873778613199536 53.40763578938459 -18.051565785893686 2.143137315527979 -18.513981248709875 0 0 0 0 0 0 0 0 0 0 0 0 0 0 0 0 0 0 0 0 0 0 0 0 0 0 0 0 0 0 0 0 0 0 0 0 0 0 0 0 0 0 0 0 0
0.9585436727261191 -4.752430536569382 0.1265703060484188 0 9.400258071200025 0 14.360152551660091 -8.227828458291075 -0.45720547496795294 32.76347804148486 80.39497417176675 34.077425265121065 25.840290812815986 57.47703995250517 6.456158466417089 0 0 0 -12.518373870408507 -11.60856609296179 -13.727327716507904 -33.506847572387 80.57710528502663 -34.9729928448841 -10.784910213834637 62.04089116769053 -4.786318820390422 0 0 0 -2.0822954115033636 18.853692038514566 16.699970448959906 -1.4013732032682986 5.318446636198861 -4.153810400372827 0 0 0 -53.46758260461673 -50.365669332560856 28.08016298671081 -2.036141017184574 -7.889771018330526 -31.92237945845167 -26.191210862293385 4.998875668101254 -27.895950062870835 39.77382720443172 -13.488913171629289 -10.190013189420082 0 0 0 0 0 0 0 0 0 0 0 0 0 0 0 0 0 0 0 0 0 0 0 0 0 0 0 0 0 0 0 0 0 0 0 0 0 0 0 0 0 0 0 0 0 -0.07492580039566601 -30.606972206812912 -8.406765450826507 -1.3713636841391355 -18.73883344714561 0.4004544489736014 0 0 0 0 0 0 0 0 0 -13.71874026894061 -11.253768517003985 -11.058615857707371 -34.90011930326479 -30.731740034496276 78.44457436550387 84.68243948777597 -0.7032676495221747 53.59360823302899 -17.689023732349604 1.30549817961215 -19.0852228417152 0 0 0 0 0 0 0 0 0 0 0 0 0 0 0 0 0 0 0 0 0 0 0 0 0 0 0 0 0 0 0 0 0 0 0 0 0 0 0 0 0 0 0 0 0
0.9585436727261191 -4.752430536569382 0.18864621769425868 0 7.599267769505051 0 14.061716539889483 -5.68195485187454 -0.045558274895384276 29.883646901730433 79.59024241674742 31.139399283530597 25.744193487969095 57.734718012975215 6.23538861317454 0 0 0 -12.995869378095666 -9.19992399180272 -14.544506742130269 -30.62347764528583 79.82731878793113 -32.08808182210179 -10.875618510258612 62.05816671462852 -5.441643794920753 0 0 0 -2.077129810517957 18.454172839538618 16.715364095551237 -1.4194673567995146 10.537740001875614 -4.28370349505969 0 0 0 -56.70281851277408 -51.973611534481826 32.52718183188886 -2.1186812954801812 -8.026738567543036 -32.31787525589909 -26.941117183773603 4.54787357606798 -28.780240702636064 40.22049115619009 -13.998166633690698 -9.851416958409553 0 0 0 0 0 0 0 0 0 0 0 0 0 0 0 0 0 0 0 0 0 0 0 0 0 0 0 0 0 0 0 0 0 0 0 0 0 0 0 0 0 0 0 0 0 -0.07146695732895282 -30.650418583512998 -8.436366423791247 -1.3580450184393174 -19.052704702355335 0.40437155299461985 0 0 0 0 0 0 0 0 0 -15.09576680051631 -12.971760919255905 -12.211522179648805 -34.932775733004306 -30.264688690292076 78.71492396857674 85.08669497677226 -1.2744571343322526 53.962703378805976 -16.9374079124542 -0.3622153751937818 -20.245913955359054 0 0 0 0 0 0 0 0 0 0 0 0 0 0 0 0 0 0 0 0 0 0 0 0 0 0 0 0 0 0 0 0 0 0 0 0 0 0 0 0 0 0 0 0 0
0.9585436727261191 -4.752430536569382 0.21968417351717862 0 6.697881300126678 0 13.919551454083113 -4.405629042070838 0.15505453444267558 28.606875868413663 79.17889025954084 29.833495224409194 25.695193087119446 57.86348674591126 6.124107691905323 0 0 0 -13.246984010863054 -7.995677386292183 -14.959574077134736 -29.336363536026383 79.44372356983249 -30.800196976160013 -10.921153041617407 62.06662226886812 -5.769499559390131 0 0 0 -2.074594309123292 18.254403957708917 16.723030964287904 -1.4333238944268318 13.169496998256252 -4.350753906807751 0 0 0 -58.438007676491395 -52.715983110516376 34.86400095612958 -2.159605795539543 -8.095436661703625 -32.5156096432172 -27.31341023120263 4.31796921195567 -29.220132888938732 40.4430745451133 -14.253801137083126 -9.683340790664763 0 0 0 0 0 0 0 0 0 0 0 0 0 0 0 0 0 0 0 0 0 0 0 0 0 0 0 0 0 0 0 0 0 0 0 0 0 0 0 0 0 0 0 0 0 -0.06972705295081257 -30.672147107612513 -8.45117243391176 -1.3513856169868774 -19.2096040547215 0.40630280589085366 0 0 0 0 0 0 0 0 0 -15.775599850966113 -13.842099868779732 -12.77590524646838 -34.94810396946028 -30.03109472970635 78.84953584781663 85.28751710319425 -1.5610758814759131 54.14580668657664 -16.54831545635818 -1.1914299750489452 -20.83543408093228 0 0 0 0 0 0 0 0 0 0 0 0 0 0 0 0 0 0 0 0 0 0 0 0 0 0 0 0 0 0 0 0 0 0 0 0 0 0 0 0 0 0 0 0 0
